HIERARCHY
ROOT Hips
{
	OFFSET 0.00000 0.00000 0.00000
	CHANNELS 6 Xposition Yposition Zposition Zrotation Yrotation Xrotation 
	JOINT LHipJoint
	{
		OFFSET 0 0 0
		CHANNELS 3 Zrotation Yrotation Xrotation
		JOINT LeftUpLeg
		{
			OFFSET 1.48831 -1.59570 0.95625
			CHANNELS 3 Zrotation Yrotation Xrotation
			JOINT LeftLeg
			{
				OFFSET 2.20856 -6.06797 0.00000
				CHANNELS 3 Zrotation Yrotation Xrotation
				JOINT LeftFoot
				{
					OFFSET 2.62924 -7.22379 0.00000
					CHANNELS 3 Zrotation Yrotation Xrotation
					JOINT LeftToeBase
					{
						OFFSET 0.16802 -0.46163 2.41673
						CHANNELS 3 Zrotation Yrotation Xrotation
						End Site
						{
							OFFSET 0.00000 -0.00000 1.23760
						}
					}
				}
			}
		}
	}
	JOINT RHipJoint
	{
		OFFSET 0 0 0
		CHANNELS 3 Zrotation Yrotation Xrotation
		JOINT RightUpLeg
		{
			OFFSET -1.56796 -1.59570 0.95625
			CHANNELS 3 Zrotation Yrotation Xrotation
			JOINT RightLeg
			{
				OFFSET -2.29239 -6.29829 0.00000
				CHANNELS 3 Zrotation Yrotation Xrotation
				JOINT RightFoot
				{
					OFFSET -2.66963 -7.33475 0.00000
					CHANNELS 3 Zrotation Yrotation Xrotation
					JOINT RightToeBase
					{
						OFFSET -0.18185 -0.49964 2.34359
						CHANNELS 3 Zrotation Yrotation Xrotation
						End Site
						{
							OFFSET -0.00000 -0.00000 1.20477
						}
					}
				}
			}
		}
	}
	JOINT LowerBack
	{
		OFFSET 0 0 0
		CHANNELS 3 Zrotation Yrotation Xrotation
		JOINT Spine
		{
			OFFSET 0.03505 2.15832 -0.34324
			CHANNELS 3 Zrotation Yrotation Xrotation
			JOINT Spine1
			{
				OFFSET -0.01089 2.17963 0.04689
				CHANNELS 3 Zrotation Yrotation Xrotation
				JOINT Neck
				{
					OFFSET 0 0 0
					CHANNELS 3 Zrotation Yrotation Xrotation
					JOINT Neck1
					{
						OFFSET 0.04686 1.69404 0.22159
						CHANNELS 3 Zrotation Yrotation Xrotation
						JOINT Head
						{
							OFFSET 0.00265 1.69305 -0.01513
							CHANNELS 3 Zrotation Yrotation Xrotation
							End Site
							{
								OFFSET -0.00415 1.80215 -0.03034
							}
						}
					}
				}
				JOINT LeftShoulder
				{
					OFFSET 0 0 0
					CHANNELS 3 Zrotation Yrotation Xrotation
					JOINT LeftArm
					{
						OFFSET 3.67184 1.11724 -0.19002
						CHANNELS 3 Zrotation Yrotation Xrotation
						JOINT LeftForeArm
						{
							OFFSET 5.17714 -0.00000 -0.00000
							CHANNELS 3 Zrotation Yrotation Xrotation
							JOINT LeftHand
							{
								OFFSET 3.43679 -0.00000 -0.00000
								CHANNELS 3 Zrotation Yrotation Xrotation
								JOINT LeftFingerBase
								{
									OFFSET 0 0 0
									CHANNELS 3 Zrotation Yrotation Xrotation
									JOINT LeftHandIndex1
									{
										OFFSET 0.57312 -0.00000 -0.00000
										CHANNELS 3 Zrotation Yrotation Xrotation
										End Site
										{
											OFFSET 0.46206 -0.00000 -0.00000
										}
									}
								}
								JOINT LThumb
								{
									OFFSET 0 0 0
									CHANNELS 3 Zrotation Yrotation Xrotation
									End Site
									{
										OFFSET 0.46912 -0.00000 0.46912
									}
								}
							}
						}
					}
				}
				JOINT RightShoulder
				{
					OFFSET 0 0 0
					CHANNELS 3 Zrotation Yrotation Xrotation
					JOINT RightArm
					{
						OFFSET -3.59596 0.95831 -0.26050
						CHANNELS 3 Zrotation Yrotation Xrotation
						JOINT RightForeArm
						{
							OFFSET -5.23908 -0.00000 -0.00000
							CHANNELS 3 Zrotation Yrotation Xrotation
							JOINT RightHand
							{
								OFFSET -3.46485 -0.00000 -0.00000
								CHANNELS 3 Zrotation Yrotation Xrotation
								JOINT RightFingerBase
								{
									OFFSET 0 0 0
									CHANNELS 3 Zrotation Yrotation Xrotation
									JOINT RightHandIndex1
									{
										OFFSET -0.60875 -0.00000 -0.00000
										CHANNELS 3 Zrotation Yrotation Xrotation
										End Site
										{
											OFFSET -0.49079 -0.00000 -0.00000
										}
									}
								}
								JOINT RThumb
								{
									OFFSET 0 0 0
									CHANNELS 3 Zrotation Yrotation Xrotation
									End Site
									{
										OFFSET -0.49829 -0.00000 0.49829
									}
								}
							}
						}
					}
				}
			}
		}
	}
}
MOTION
Frames: 6
Frame Time: .0083333
-0.6732 16.1707 -17.9438 -17.2318 -23.4531 3.5018 0.0000 0.0000 0.0000 -5.9414 -13.6242 -28.1603 12.8155 18.7145 68.5515 0.4565 1.1411 -13.2277 0.5269 -4.6517 -12.9178 0.0000 0.0000 0.0000 41.7234 -7.4093 4.5041 -0.9817 -6.3071 17.6780 -0.6308 6.2649 -14.1848 -0.0092 -0.6209 1.7063 8.7802 -0.8435 -5.0422 4.9260 -1.8572 0.3530 0.0595 -0.8363 3.0998 -1.3827 -4.7155 2.1637 3.5102 -6.1712 -6.2766 1.4993 -3.1419 -2.1874 0.0000 -0.0000 0.0000 -92.4803 14.9017 16.7021 17.5462 -27.5721 -4.3371 -0.0000 0.0000 -25.9890 26.4391 10.2008 5.0327 -7.1250 0.0000 -0.0000 -0.5235 41.3421 0.0472 0.0000 -0.0000 0.0000 84.8163 -4.6693 18.2891 -11.7134 19.3735 -2.0062 0.0000 0.0000 7.1288 -24.9464 -8.1442 3.7702 7.1250 -0.0000 -0.0000 1.6570 -38.9440 0.2473
-0.7193 16.1758 -17.8779 -17.3371 -23.6559 3.6509 0.0000 0.0000 0.0000 -6.1662 -13.5763 -28.8331 12.2473 18.4933 66.7707 0.4900 1.2784 -13.7471 0.5496 -4.7493 -13.1948 0.0000 0.0000 0.0000 41.7138 -7.8129 4.9140 -0.9256 -6.1292 17.1597 -0.5808 6.6335 -13.6619 -0.0083 -0.5878 1.6153 9.2198 -0.5209 -5.0477 4.7064 -1.4495 0.3893 -0.3808 -0.6211 3.1509 -1.7444 -5.0195 2.2557 3.9632 -6.5668 -6.4197 1.7206 -3.3445 -2.2151 -0.0000 0.0000 0.0000 -92.3133 15.0061 16.4839 17.5686 -27.6013 -4.3475 -0.0000 0.0000 -25.9897 26.3424 10.1632 4.9933 -7.1250 0.0000 -0.0000 -0.6062 41.2909 0.0555 -0.0000 0.0000 0.0000 85.0589 -4.4141 19.4290 -11.8839 19.6304 -2.0631 0.0000 0.0000 6.8587 -24.9980 -8.1108 3.7637 7.1250 -0.0000 -0.0000 1.6095 -38.9112 0.2415
-0.7663 16.1820 -17.8110 -17.4036 -23.8837 3.7739 0.0000 0.0000 0.0000 -6.4413 -13.4668 -29.3860 11.6394 18.2340 64.8412 0.5221 1.3942 -14.2246 0.5653 -4.8157 -13.3836 0.0000 0.0000 0.0000 41.6592 -8.1996 5.3579 -0.8706 -5.9492 16.6372 -0.5316 6.9707 -13.1433 -0.0074 -0.5546 1.5240 9.6265 -0.2065 -5.0379 4.4716 -1.0489 0.4317 -0.8185 -0.4095 3.2088 -2.0807 -5.3116 2.3229 4.3943 -6.9473 -6.5431 1.9298 -3.5394 -2.2308 -0.0000 -0.0000 0.0000 -92.1422 15.1354 16.2622 17.5873 -27.6255 -4.3562 -0.0000 0.0000 -25.9821 26.2453 10.1408 4.9614 -7.1250 0.0000 -0.0000 -0.6907 41.2568 0.0638 -0.0000 -0.0000 0.0000 85.3006 -4.1373 20.5793 -12.0643 19.9010 -2.1241 0.0000 0.0000 6.5925 -25.0553 -8.0684 3.7540 7.1250 -0.0000 -0.0000 1.5565 -38.8690 0.2352
-0.8152 16.1886 -17.7429 -17.4393 -24.1118 3.8677 0.0000 0.0000 0.0000 -6.7516 -13.3206 -29.8123 10.9963 17.9333 62.7695 0.5510 1.4482 -14.6207 0.5770 -4.8640 -13.5212 0.0000 0.0000 0.0000 41.5748 -8.5816 5.8291 -0.8177 -5.7700 16.1185 -0.4841 7.2709 -12.6375 -0.0073 -0.5502 1.5118 9.9873 0.0894 -5.0176 4.2326 -0.6690 0.4786 -1.2362 -0.2082 3.2729 -2.4106 -5.5909 2.3727 4.8116 -7.3117 -6.6433 2.1327 -3.7260 -2.2340 0.0000 0.0000 0.0000 -91.9791 15.2926 16.0249 17.5958 -27.6365 -4.3601 -0.0000 0.0000 -25.9629 26.1951 10.0968 4.9293 -7.1250 0.0000 -0.0000 -0.7313 41.2032 0.0685 0.0000 0.0000 0.0000 85.5345 -3.8407 21.7400 -12.2521 20.1816 -2.1885 0.0000 0.0000 6.3194 -25.1073 -8.0214 3.7411 7.1250 -0.0000 -0.0000 1.5078 -38.8214 0.2296
-0.8645 16.1962 -17.6734 -17.4089 -24.3344 3.9328 0.0000 0.0000 0.0000 -7.1337 -13.1623 -30.1209 10.3248 17.5885 60.5684 0.5765 1.4080 -14.9211 0.5877 -4.9083 -13.6471 0.0000 0.0000 0.0000 41.4132 -8.9882 6.3019 -0.7665 -5.5906 15.6010 -0.4372 7.5672 -12.1348 -0.0076 -0.5641 1.5500 10.2836 0.3632 -4.9991 3.9800 -0.3140 0.5226 -1.6341 -0.0199 3.3403 -2.7231 -5.8567 2.4127 5.2041 -7.6594 -6.7238 2.3237 -3.9039 -2.2283 -0.0000 0.0000 0.0000 -91.8241 15.4869 15.7942 17.5940 -27.6341 -4.3593 -0.0000 0.0000 -25.9680 26.1974 10.0251 4.8953 -7.1250 0.0000 -0.0000 -0.7228 41.1241 0.0691 -0.0000 0.0000 0.0000 85.7562 -3.5297 22.9148 -12.4492 20.4748 -2.2569 0.0000 0.0000 6.0355 -25.1505 -7.9807 3.7296 7.1250 -0.0000 -0.0000 1.4673 -38.7799 0.2249
-0.9155 16.2044 -17.6020 -17.3163 -24.5423 3.9577 0.0000 0.0000 0.0000 -7.5738 -13.0163 -30.2944 9.6339 17.1988 58.2576 0.5993 1.2293 -15.1193 0.5961 -4.9428 -13.7456 0.0000 0.0000 0.0000 41.1914 -9.4066 6.7994 -0.7164 -5.4091 15.0791 -0.3929 7.8297 -11.6513 -0.0073 -0.5513 1.5149 10.4942 0.6070 -4.9828 3.7270 0.0060 0.5682 -1.9877 0.1501 3.4130 -3.0357 -6.1087 2.4437 5.5784 -7.9904 -6.7824 2.5080 -4.0728 -2.2127 -0.0000 -0.0000 0.0000 -91.7054 15.7099 15.5109 17.5727 -27.6066 -4.3494 -0.0000 0.0000 -25.9544 26.2536 9.9115 4.8526 -7.1250 0.0000 -0.0000 -0.6629 41.0039 0.0653 -0.0000 -0.0000 0.0000 85.9555 -3.2004 24.0884 -12.6495 20.7715 -2.3275 0.0000 0.0000 5.7570 -25.1640 -7.9248 3.7060 7.1250 -0.0000 -0.0000 1.4511 -38.7194 0.2246
